<svg xmlns="http://www.w3.org/2000/svg" viewBox="0 0 208 208" fill="#62301d">
  <circle cx="8" cy="8" r="0.55" />
  <circle cx="24" cy="8" r="0.59" />
  <circle cx="40" cy="8" r="0.66" />
  <circle cx="56" cy="8" r="0.77" />
  <circle cx="72" cy="8" r="0.9" />
  <circle cx="88" cy="8" r="1.05" />
  <circle cx="104" cy="8" r="1.23" />
  <circle cx="120" cy="8" r="1.42" />
  <circle cx="136" cy="8" r="1.64" />
  <circle cx="152" cy="8" r="1.87" />
  <circle cx="168" cy="8" r="2.12" />
  <circle cx="184" cy="8" r="2.39" />
  <circle cx="200" cy="8" r="2.67" />
  <circle cx="8" cy="24" r="0.59" />
  <circle cx="24" cy="24" r="0.66" />
  <circle cx="40" cy="24" r="0.77" />
  <circle cx="56" cy="24" r="0.9" />
  <circle cx="72" cy="24" r="1.05" />
  <circle cx="88" cy="24" r="1.23" />
  <circle cx="104" cy="24" r="1.42" />
  <circle cx="120" cy="24" r="1.64" />
  <circle cx="136" cy="24" r="1.87" />
  <circle cx="152" cy="24" r="2.12" />
  <circle cx="168" cy="24" r="2.39" />
  <circle cx="184" cy="24" r="2.67" />
  <circle cx="200" cy="24" r="2.97" />
  <circle cx="8" cy="40" r="0.66" />
  <circle cx="24" cy="40" r="0.77" />
  <circle cx="40" cy="40" r="0.9" />
  <circle cx="56" cy="40" r="1.05" />
  <circle cx="72" cy="40" r="1.23" />
  <circle cx="88" cy="40" r="1.42" />
  <circle cx="104" cy="40" r="1.64" />
  <circle cx="120" cy="40" r="1.87" />
  <circle cx="136" cy="40" r="2.12" />
  <circle cx="152" cy="40" r="2.39" />
  <circle cx="168" cy="40" r="2.67" />
  <circle cx="184" cy="40" r="2.97" />
  <circle cx="200" cy="40" r="3.28" />
  <circle cx="8" cy="56" r="0.77" />
  <circle cx="24" cy="56" r="0.9" />
  <circle cx="40" cy="56" r="1.05" />
  <circle cx="56" cy="56" r="1.23" />
  <circle cx="72" cy="56" r="1.42" />
  <circle cx="88" cy="56" r="1.64" />
  <circle cx="104" cy="56" r="1.87" />
  <circle cx="120" cy="56" r="2.12" />
  <circle cx="136" cy="56" r="2.39" />
  <circle cx="152" cy="56" r="2.67" />
  <circle cx="168" cy="56" r="2.97" />
  <circle cx="184" cy="56" r="3.28" />
  <circle cx="200" cy="56" r="3.61" />
  <circle cx="8" cy="72" r="0.9" />
  <circle cx="24" cy="72" r="1.05" />
  <circle cx="40" cy="72" r="1.23" />
  <circle cx="56" cy="72" r="1.42" />
  <circle cx="72" cy="72" r="1.64" />
  <circle cx="88" cy="72" r="1.87" />
  <circle cx="104" cy="72" r="2.12" />
  <circle cx="120" cy="72" r="2.39" />
  <circle cx="136" cy="72" r="2.67" />
  <circle cx="152" cy="72" r="2.97" />
  <circle cx="168" cy="72" r="3.28" />
  <circle cx="184" cy="72" r="3.61" />
  <circle cx="200" cy="72" r="3.96" />
  <circle cx="8" cy="88" r="1.05" />
  <circle cx="24" cy="88" r="1.23" />
  <circle cx="40" cy="88" r="1.42" />
  <circle cx="56" cy="88" r="1.64" />
  <circle cx="72" cy="88" r="1.87" />
  <circle cx="88" cy="88" r="2.12" />
  <circle cx="104" cy="88" r="2.39" />
  <circle cx="120" cy="88" r="2.67" />
  <circle cx="136" cy="88" r="2.97" />
  <circle cx="152" cy="88" r="3.28" />
  <circle cx="168" cy="88" r="3.61" />
  <circle cx="184" cy="88" r="3.96" />
  <circle cx="200" cy="88" r="4.31" />
  <circle cx="8" cy="104" r="1.23" />
  <circle cx="24" cy="104" r="1.42" />
  <circle cx="40" cy="104" r="1.64" />
  <circle cx="56" cy="104" r="1.87" />
  <circle cx="72" cy="104" r="2.12" />
  <circle cx="88" cy="104" r="2.39" />
  <circle cx="104" cy="104" r="2.67" />
  <circle cx="120" cy="104" r="2.97" />
  <circle cx="136" cy="104" r="3.28" />
  <circle cx="152" cy="104" r="3.61" />
  <circle cx="168" cy="104" r="3.96" />
  <circle cx="184" cy="104" r="4.31" />
  <circle cx="200" cy="104" r="4.69" />
  <circle cx="8" cy="120" r="1.42" />
  <circle cx="24" cy="120" r="1.64" />
  <circle cx="40" cy="120" r="1.87" />
  <circle cx="56" cy="120" r="2.12" />
  <circle cx="72" cy="120" r="2.39" />
  <circle cx="88" cy="120" r="2.67" />
  <circle cx="104" cy="120" r="2.97" />
  <circle cx="120" cy="120" r="3.28" />
  <circle cx="136" cy="120" r="3.61" />
  <circle cx="152" cy="120" r="3.96" />
  <circle cx="168" cy="120" r="4.31" />
  <circle cx="184" cy="120" r="4.69" />
  <circle cx="200" cy="120" r="5.07" />
  <circle cx="8" cy="136" r="1.64" />
  <circle cx="24" cy="136" r="1.87" />
  <circle cx="40" cy="136" r="2.12" />
  <circle cx="56" cy="136" r="2.39" />
  <circle cx="72" cy="136" r="2.67" />
  <circle cx="88" cy="136" r="2.97" />
  <circle cx="104" cy="136" r="3.28" />
  <circle cx="120" cy="136" r="3.61" />
  <circle cx="136" cy="136" r="3.96" />
  <circle cx="152" cy="136" r="4.31" />
  <circle cx="168" cy="136" r="4.69" />
  <circle cx="184" cy="136" r="5.07" />
  <circle cx="200" cy="136" r="5.47" />
  <circle cx="8" cy="152" r="1.87" />
  <circle cx="24" cy="152" r="2.12" />
  <circle cx="40" cy="152" r="2.39" />
  <circle cx="56" cy="152" r="2.67" />
  <circle cx="72" cy="152" r="2.97" />
  <circle cx="88" cy="152" r="3.28" />
  <circle cx="104" cy="152" r="3.61" />
  <circle cx="120" cy="152" r="3.96" />
  <circle cx="136" cy="152" r="4.31" />
  <circle cx="152" cy="152" r="4.69" />
  <circle cx="168" cy="152" r="5.07" />
  <circle cx="184" cy="152" r="5.47" />
  <circle cx="200" cy="152" r="5.89" />
  <circle cx="8" cy="168" r="2.12" />
  <circle cx="24" cy="168" r="2.39" />
  <circle cx="40" cy="168" r="2.67" />
  <circle cx="56" cy="168" r="2.97" />
  <circle cx="72" cy="168" r="3.28" />
  <circle cx="88" cy="168" r="3.61" />
  <circle cx="104" cy="168" r="3.96" />
  <circle cx="120" cy="168" r="4.31" />
  <circle cx="136" cy="168" r="4.69" />
  <circle cx="152" cy="168" r="5.07" />
  <circle cx="168" cy="168" r="5.47" />
  <circle cx="184" cy="168" r="5.89" />
  <circle cx="200" cy="168" r="6.31" />
  <circle cx="8" cy="184" r="2.39" />
  <circle cx="24" cy="184" r="2.67" />
  <circle cx="40" cy="184" r="2.97" />
  <circle cx="56" cy="184" r="3.28" />
  <circle cx="72" cy="184" r="3.61" />
  <circle cx="88" cy="184" r="3.96" />
  <circle cx="104" cy="184" r="4.31" />
  <circle cx="120" cy="184" r="4.69" />
  <circle cx="136" cy="184" r="5.07" />
  <circle cx="152" cy="184" r="5.47" />
  <circle cx="168" cy="184" r="5.89" />
  <circle cx="184" cy="184" r="6.31" />
  <circle cx="200" cy="184" r="6.75" />
  <circle cx="8" cy="200" r="2.67" />
  <circle cx="24" cy="200" r="2.97" />
  <circle cx="40" cy="200" r="3.28" />
  <circle cx="56" cy="200" r="3.61" />
  <circle cx="72" cy="200" r="3.96" />
  <circle cx="88" cy="200" r="4.31" />
  <circle cx="104" cy="200" r="4.69" />
  <circle cx="120" cy="200" r="5.07" />
  <circle cx="136" cy="200" r="5.47" />
  <circle cx="152" cy="200" r="5.89" />
  <circle cx="168" cy="200" r="6.31" />
  <circle cx="184" cy="200" r="6.75" />
  <circle cx="200" cy="200" r="7.2" />
</svg>
