<svg xmlns="http://www.w3.org/2000/svg" viewBox="0 0 228 224" fill="#62301d">
  <circle cx="8" cy="8" r="0.08" />
  <circle cx="20" cy="8" r="0.08" />
  <circle cx="32" cy="8" r="0.09" />
  <circle cx="44" cy="8" r="0.1" />
  <circle cx="56" cy="8" r="0.12" />
  <circle cx="68" cy="8" r="0.15" />
  <circle cx="80" cy="8" r="0.2" />
  <circle cx="92" cy="8" r="0.26" />
  <circle cx="104" cy="8" r="0.34" />
  <circle cx="116" cy="8" r="0.43" />
  <circle cx="128" cy="8" r="0.54" />
  <circle cx="140" cy="8" r="0.67" />
  <circle cx="152" cy="8" r="0.83" />
  <circle cx="164" cy="8" r="1" />
  <circle cx="176" cy="8" r="1.2" />
  <circle cx="188" cy="8" r="1.43" />
  <circle cx="200" cy="8" r="1.68" />
  <circle cx="212" cy="8" r="1.96" />
  <circle cx="14" cy="20" r="0.08" />
  <circle cx="26" cy="20" r="0.09" />
  <circle cx="38" cy="20" r="0.1" />
  <circle cx="50" cy="20" r="0.12" />
  <circle cx="62" cy="20" r="0.15" />
  <circle cx="74" cy="20" r="0.2" />
  <circle cx="86" cy="20" r="0.26" />
  <circle cx="98" cy="20" r="0.34" />
  <circle cx="110" cy="20" r="0.43" />
  <circle cx="122" cy="20" r="0.54" />
  <circle cx="134" cy="20" r="0.67" />
  <circle cx="146" cy="20" r="0.83" />
  <circle cx="158" cy="20" r="1" />
  <circle cx="170" cy="20" r="1.2" />
  <circle cx="182" cy="20" r="1.43" />
  <circle cx="194" cy="20" r="1.68" />
  <circle cx="206" cy="20" r="1.96" />
  <circle cx="218" cy="20" r="2.27" />
  <circle cx="8" cy="32" r="0.09" />
  <circle cx="20" cy="32" r="0.1" />
  <circle cx="32" cy="32" r="0.12" />
  <circle cx="44" cy="32" r="0.15" />
  <circle cx="56" cy="32" r="0.2" />
  <circle cx="68" cy="32" r="0.26" />
  <circle cx="80" cy="32" r="0.34" />
  <circle cx="92" cy="32" r="0.43" />
  <circle cx="104" cy="32" r="0.54" />
  <circle cx="116" cy="32" r="0.67" />
  <circle cx="128" cy="32" r="0.83" />
  <circle cx="140" cy="32" r="1" />
  <circle cx="152" cy="32" r="1.2" />
  <circle cx="164" cy="32" r="1.43" />
  <circle cx="176" cy="32" r="1.68" />
  <circle cx="188" cy="32" r="1.96" />
  <circle cx="200" cy="32" r="2.27" />
  <circle cx="212" cy="32" r="2.6" />
  <circle cx="14" cy="44" r="0.1" />
  <circle cx="26" cy="44" r="0.12" />
  <circle cx="38" cy="44" r="0.15" />
  <circle cx="50" cy="44" r="0.2" />
  <circle cx="62" cy="44" r="0.26" />
  <circle cx="74" cy="44" r="0.34" />
  <circle cx="86" cy="44" r="0.43" />
  <circle cx="98" cy="44" r="0.54" />
  <circle cx="110" cy="44" r="0.67" />
  <circle cx="122" cy="44" r="0.83" />
  <circle cx="134" cy="44" r="1" />
  <circle cx="146" cy="44" r="1.2" />
  <circle cx="158" cy="44" r="1.43" />
  <circle cx="170" cy="44" r="1.68" />
  <circle cx="182" cy="44" r="1.96" />
  <circle cx="194" cy="44" r="2.27" />
  <circle cx="206" cy="44" r="2.6" />
  <circle cx="218" cy="44" r="2.97" />
  <circle cx="8" cy="56" r="0.12" />
  <circle cx="20" cy="56" r="0.15" />
  <circle cx="32" cy="56" r="0.2" />
  <circle cx="44" cy="56" r="0.26" />
  <circle cx="56" cy="56" r="0.34" />
  <circle cx="68" cy="56" r="0.43" />
  <circle cx="80" cy="56" r="0.54" />
  <circle cx="92" cy="56" r="0.67" />
  <circle cx="104" cy="56" r="0.83" />
  <circle cx="116" cy="56" r="1" />
  <circle cx="128" cy="56" r="1.2" />
  <circle cx="140" cy="56" r="1.43" />
  <circle cx="152" cy="56" r="1.68" />
  <circle cx="164" cy="56" r="1.96" />
  <circle cx="176" cy="56" r="2.27" />
  <circle cx="188" cy="56" r="2.6" />
  <circle cx="200" cy="56" r="2.97" />
  <circle cx="212" cy="56" r="3.37" />
  <circle cx="14" cy="68" r="0.15" />
  <circle cx="26" cy="68" r="0.2" />
  <circle cx="38" cy="68" r="0.26" />
  <circle cx="50" cy="68" r="0.34" />
  <circle cx="62" cy="68" r="0.43" />
  <circle cx="74" cy="68" r="0.54" />
  <circle cx="86" cy="68" r="0.67" />
  <circle cx="98" cy="68" r="0.83" />
  <circle cx="110" cy="68" r="1" />
  <circle cx="122" cy="68" r="1.2" />
  <circle cx="134" cy="68" r="1.43" />
  <circle cx="146" cy="68" r="1.68" />
  <circle cx="158" cy="68" r="1.96" />
  <circle cx="170" cy="68" r="2.27" />
  <circle cx="182" cy="68" r="2.6" />
  <circle cx="194" cy="68" r="2.97" />
  <circle cx="206" cy="68" r="3.37" />
  <circle cx="218" cy="68" r="3.8" />
  <circle cx="8" cy="80" r="0.2" />
  <circle cx="20" cy="80" r="0.26" />
  <circle cx="32" cy="80" r="0.34" />
  <circle cx="44" cy="80" r="0.43" />
  <circle cx="56" cy="80" r="0.54" />
  <circle cx="68" cy="80" r="0.67" />
  <circle cx="80" cy="80" r="0.83" />
  <circle cx="92" cy="80" r="1" />
  <circle cx="104" cy="80" r="1.2" />
  <circle cx="116" cy="80" r="1.43" />
  <circle cx="128" cy="80" r="1.68" />
  <circle cx="140" cy="80" r="1.96" />
  <circle cx="152" cy="80" r="2.27" />
  <circle cx="164" cy="80" r="2.6" />
  <circle cx="176" cy="80" r="2.97" />
  <circle cx="188" cy="80" r="3.37" />
  <circle cx="200" cy="80" r="3.8" />
  <circle cx="212" cy="80" r="4.27" />
  <circle cx="14" cy="92" r="0.26" />
  <circle cx="26" cy="92" r="0.34" />
  <circle cx="38" cy="92" r="0.43" />
  <circle cx="50" cy="92" r="0.54" />
  <circle cx="62" cy="92" r="0.67" />
  <circle cx="74" cy="92" r="0.83" />
  <circle cx="86" cy="92" r="1" />
  <circle cx="98" cy="92" r="1.2" />
  <circle cx="110" cy="92" r="1.43" />
  <circle cx="122" cy="92" r="1.68" />
  <circle cx="134" cy="92" r="1.96" />
  <circle cx="146" cy="92" r="2.27" />
  <circle cx="158" cy="92" r="2.6" />
  <circle cx="170" cy="92" r="2.97" />
  <circle cx="182" cy="92" r="3.37" />
  <circle cx="194" cy="92" r="3.8" />
  <circle cx="206" cy="92" r="4.27" />
  <circle cx="218" cy="92" r="4.77" />
  <circle cx="8" cy="104" r="0.34" />
  <circle cx="20" cy="104" r="0.43" />
  <circle cx="32" cy="104" r="0.54" />
  <circle cx="44" cy="104" r="0.67" />
  <circle cx="56" cy="104" r="0.83" />
  <circle cx="68" cy="104" r="1" />
  <circle cx="80" cy="104" r="1.2" />
  <circle cx="92" cy="104" r="1.43" />
  <circle cx="104" cy="104" r="1.68" />
  <circle cx="116" cy="104" r="1.96" />
  <circle cx="128" cy="104" r="2.27" />
  <circle cx="140" cy="104" r="2.6" />
  <circle cx="152" cy="104" r="2.97" />
  <circle cx="164" cy="104" r="3.37" />
  <circle cx="176" cy="104" r="3.8" />
  <circle cx="188" cy="104" r="4.27" />
  <circle cx="200" cy="104" r="4.77" />
  <circle cx="212" cy="104" r="5.3" />
  <circle cx="14" cy="116" r="0.43" />
  <circle cx="26" cy="116" r="0.54" />
  <circle cx="38" cy="116" r="0.67" />
  <circle cx="50" cy="116" r="0.83" />
  <circle cx="62" cy="116" r="1" />
  <circle cx="74" cy="116" r="1.2" />
  <circle cx="86" cy="116" r="1.43" />
  <circle cx="98" cy="116" r="1.68" />
  <circle cx="110" cy="116" r="1.96" />
  <circle cx="122" cy="116" r="2.27" />
  <circle cx="134" cy="116" r="2.6" />
  <circle cx="146" cy="116" r="2.97" />
  <circle cx="158" cy="116" r="3.37" />
  <circle cx="170" cy="116" r="3.8" />
  <circle cx="182" cy="116" r="4.27" />
  <circle cx="194" cy="116" r="4.77" />
  <circle cx="206" cy="116" r="5.3" />
  <circle cx="218" cy="116" r="5.88" />
  <circle cx="8" cy="128" r="0.54" />
  <circle cx="20" cy="128" r="0.67" />
  <circle cx="32" cy="128" r="0.83" />
  <circle cx="44" cy="128" r="1" />
  <circle cx="56" cy="128" r="1.2" />
  <circle cx="68" cy="128" r="1.43" />
  <circle cx="80" cy="128" r="1.68" />
  <circle cx="92" cy="128" r="1.96" />
  <circle cx="104" cy="128" r="2.27" />
  <circle cx="116" cy="128" r="2.6" />
  <circle cx="128" cy="128" r="2.97" />
  <circle cx="140" cy="128" r="3.37" />
  <circle cx="152" cy="128" r="3.8" />
  <circle cx="164" cy="128" r="4.27" />
  <circle cx="176" cy="128" r="4.77" />
  <circle cx="188" cy="128" r="5.3" />
  <circle cx="200" cy="128" r="5.88" />
  <circle cx="212" cy="128" r="6.49" />
  <circle cx="14" cy="140" r="0.67" />
  <circle cx="26" cy="140" r="0.83" />
  <circle cx="38" cy="140" r="1" />
  <circle cx="50" cy="140" r="1.2" />
  <circle cx="62" cy="140" r="1.43" />
  <circle cx="74" cy="140" r="1.68" />
  <circle cx="86" cy="140" r="1.96" />
  <circle cx="98" cy="140" r="2.27" />
  <circle cx="110" cy="140" r="2.6" />
  <circle cx="122" cy="140" r="2.97" />
  <circle cx="134" cy="140" r="3.37" />
  <circle cx="146" cy="140" r="3.8" />
  <circle cx="158" cy="140" r="4.27" />
  <circle cx="170" cy="140" r="4.77" />
  <circle cx="182" cy="140" r="5.3" />
  <circle cx="194" cy="140" r="5.88" />
  <circle cx="206" cy="140" r="6.49" />
  <circle cx="218" cy="140" r="7.13" />
  <circle cx="8" cy="152" r="0.83" />
  <circle cx="20" cy="152" r="1" />
  <circle cx="32" cy="152" r="1.2" />
  <circle cx="44" cy="152" r="1.43" />
  <circle cx="56" cy="152" r="1.68" />
  <circle cx="68" cy="152" r="1.96" />
  <circle cx="80" cy="152" r="2.27" />
  <circle cx="92" cy="152" r="2.6" />
  <circle cx="104" cy="152" r="2.97" />
  <circle cx="116" cy="152" r="3.37" />
  <circle cx="128" cy="152" r="3.8" />
  <circle cx="140" cy="152" r="4.27" />
  <circle cx="152" cy="152" r="4.77" />
  <circle cx="164" cy="152" r="5.3" />
  <circle cx="176" cy="152" r="5.88" />
  <circle cx="188" cy="152" r="6.49" />
  <circle cx="200" cy="152" r="7.13" />
  <circle cx="212" cy="152" r="7.82" />
  <circle cx="14" cy="164" r="1" />
  <circle cx="26" cy="164" r="1.2" />
  <circle cx="38" cy="164" r="1.43" />
  <circle cx="50" cy="164" r="1.68" />
  <circle cx="62" cy="164" r="1.96" />
  <circle cx="74" cy="164" r="2.27" />
  <circle cx="86" cy="164" r="2.6" />
  <circle cx="98" cy="164" r="2.97" />
  <circle cx="110" cy="164" r="3.37" />
  <circle cx="122" cy="164" r="3.8" />
  <circle cx="134" cy="164" r="4.27" />
  <circle cx="146" cy="164" r="4.77" />
  <circle cx="158" cy="164" r="5.3" />
  <circle cx="170" cy="164" r="5.88" />
  <circle cx="182" cy="164" r="6.49" />
  <circle cx="194" cy="164" r="7.13" />
  <circle cx="206" cy="164" r="7.82" />
  <circle cx="218" cy="164" r="8.55" />
  <circle cx="8" cy="176" r="1.2" />
  <circle cx="20" cy="176" r="1.43" />
  <circle cx="32" cy="176" r="1.68" />
  <circle cx="44" cy="176" r="1.96" />
  <circle cx="56" cy="176" r="2.27" />
  <circle cx="68" cy="176" r="2.6" />
  <circle cx="80" cy="176" r="2.97" />
  <circle cx="92" cy="176" r="3.37" />
  <circle cx="104" cy="176" r="3.8" />
  <circle cx="116" cy="176" r="4.27" />
  <circle cx="128" cy="176" r="4.77" />
  <circle cx="140" cy="176" r="5.3" />
  <circle cx="152" cy="176" r="5.88" />
  <circle cx="164" cy="176" r="6.49" />
  <circle cx="176" cy="176" r="7.13" />
  <circle cx="188" cy="176" r="7.82" />
  <circle cx="200" cy="176" r="8.55" />
  <circle cx="212" cy="176" r="9.32" />
  <circle cx="14" cy="188" r="1.43" />
  <circle cx="26" cy="188" r="1.68" />
  <circle cx="38" cy="188" r="1.96" />
  <circle cx="50" cy="188" r="2.27" />
  <circle cx="62" cy="188" r="2.6" />
  <circle cx="74" cy="188" r="2.97" />
  <circle cx="86" cy="188" r="3.37" />
  <circle cx="98" cy="188" r="3.8" />
  <circle cx="110" cy="188" r="4.27" />
  <circle cx="122" cy="188" r="4.77" />
  <circle cx="134" cy="188" r="5.3" />
  <circle cx="146" cy="188" r="5.88" />
  <circle cx="158" cy="188" r="6.49" />
  <circle cx="170" cy="188" r="7.13" />
  <circle cx="182" cy="188" r="7.82" />
  <circle cx="194" cy="188" r="8.55" />
  <circle cx="206" cy="188" r="9.32" />
  <circle cx="218" cy="188" r="10.13" />
  <circle cx="8" cy="200" r="1.68" />
  <circle cx="20" cy="200" r="1.96" />
  <circle cx="32" cy="200" r="2.27" />
  <circle cx="44" cy="200" r="2.6" />
  <circle cx="56" cy="200" r="2.97" />
  <circle cx="68" cy="200" r="3.37" />
  <circle cx="80" cy="200" r="3.8" />
  <circle cx="92" cy="200" r="4.27" />
  <circle cx="104" cy="200" r="4.77" />
  <circle cx="116" cy="200" r="5.3" />
  <circle cx="128" cy="200" r="5.88" />
  <circle cx="140" cy="200" r="6.49" />
  <circle cx="152" cy="200" r="7.13" />
  <circle cx="164" cy="200" r="7.82" />
  <circle cx="176" cy="200" r="8.55" />
  <circle cx="188" cy="200" r="9.32" />
  <circle cx="200" cy="200" r="10.13" />
  <circle cx="212" cy="200" r="10.98" />
  <circle cx="14" cy="212" r="1.96" />
  <circle cx="26" cy="212" r="2.27" />
  <circle cx="38" cy="212" r="2.6" />
  <circle cx="50" cy="212" r="2.97" />
  <circle cx="62" cy="212" r="3.37" />
  <circle cx="74" cy="212" r="3.8" />
  <circle cx="86" cy="212" r="4.27" />
  <circle cx="98" cy="212" r="4.77" />
  <circle cx="110" cy="212" r="5.3" />
  <circle cx="122" cy="212" r="5.88" />
  <circle cx="134" cy="212" r="6.49" />
  <circle cx="146" cy="212" r="7.13" />
  <circle cx="158" cy="212" r="7.82" />
  <circle cx="170" cy="212" r="8.55" />
  <circle cx="182" cy="212" r="9.32" />
  <circle cx="194" cy="212" r="10.13" />
  <circle cx="206" cy="212" r="10.98" />
  <circle cx="218" cy="212" r="11.88" />
</svg>
