<?xml version="1.0" encoding="UTF-8" standalone="no"?>
<!-- Created with Inkscape (http://www.inkscape.org/) -->

<svg
   width="256"
   height="256"
   viewBox="0 0 67.733332 67.733332"
   version="1.1"
   id="svg1"
   inkscape:version="1.3.2 (091e20e, 2023-11-25, custom)"
   sodipodi:docname="kachina-swirl-logo.svg"
   xmlns:inkscape="http://www.inkscape.org/namespaces/inkscape"
   xmlns:sodipodi="http://sodipodi.sourceforge.net/DTD/sodipodi-0.dtd"
   xmlns="http://www.w3.org/2000/svg"
   xmlns:svg="http://www.w3.org/2000/svg">
  <sodipodi:namedview
     id="namedview1"
     pagecolor="#505050"
     bordercolor="#eeeeee"
     borderopacity="1"
     inkscape:showpageshadow="0"
     inkscape:pageopacity="0"
     inkscape:pagecheckerboard="0"
     inkscape:deskcolor="#505050"
     inkscape:document-units="mm"
     inkscape:zoom="1.6373878"
     inkscape:cx="158.78951"
     inkscape:cy="187.79913"
     inkscape:window-width="1920"
     inkscape:window-height="1139"
     inkscape:window-x="-8"
     inkscape:window-y="-8"
     inkscape:window-maximized="1"
     inkscape:current-layer="layer1" />
  <defs
     id="defs1" />
  <g
     inkscape:label="Layer 1"
     inkscape:groupmode="layer"
     id="layer1">
    <path
       style="color:#000000;overflow:visible;fill:#cba86c;fill-opacity:1;stroke:none;stroke-width:2.64281;stroke-linecap:round;stroke-linejoin:round;stroke-dasharray:none;paint-order:fill markers stroke"
       d="M 35.727694,0.0830201 C 19.540529,-0.57948878 1.3666886,18.393292 1.5048684,34.593417 1.6396004,50.388019 19.645899,67.840685 35.440111,67.665885 50.081362,67.503844 65.650231,50.950312 66.211874,36.31894 66.817336,20.546151 51.498902,0.72850456 35.727694,0.0830201 Z"
       id="path35"
       sodipodi:nodetypes="sssss" />
    <path
       id="path34"
       style="color:#000000;fill:#7b5435;stroke-width:1.25848;stroke-linecap:round;stroke-linejoin:round;-inkscape-stroke:none;paint-order:fill markers stroke"
       d="m 34.909363,5.9932794 c -0.52053,-0.0024 -0.842775,0.1472043 -2.017329,1.3656977 L 7.6493849,33.545907 c -0.4947172,0.523277 -0.4800058,1.346318 0.033854,1.850847 L 34.140713,61.36517 c 0.513946,0.504143 1.336898,0.504143 1.850844,0 L 60.048001,37.75876 c 0.603511,-0.590094 0.506119,-1.586913 -0.199657,-2.049846 l -5.14412,-3.374575 c -0.520643,-0.342852 -1.210333,-0.275535 -1.654447,0.161932 L 35.918076,49.367843 21.195199,34.895345 34.583581,21.209104 l 4.249275,4.223259 -9.576138,6.353745 c -0.668813,0.444808 -0.789387,1.378133 -0.255583,1.978312 l 7.679119,8.610401 c 0.528119,0.591837 1.454653,0.588631 1.978315,-0.0072 l 13.312309,-15.07989 c 0.435166,-0.493874 0.440299,-1.232344 0.01259,-1.732485 L 36.078858,6.6228843 C 35.768178,6.2530552 35.380154,5.9557154 34.9096,5.9932605 Z"
       sodipodi:nodetypes="ssccccccccccccccccccsss" />
  </g>
</svg>
